<svg width="23" height="22" viewBox="0 0 23 22" fill="none" xmlns="http://www.w3.org/2000/svg">
<path d="M11.5 0C5.14917 0 0 5.0498 0 11.2781C0 16.2618 3.29475 20.4883 7.86483 21.9793C8.4397 22.0826 8.64957 21.7342 8.64957 21.4369C8.64957 21.1684 8.63904 20.2791 8.63342 19.3374C5.43555 20.0189 4.75961 18.0075 4.75961 18.0075C4.236 16.7051 3.48284 16.3582 3.48284 16.3582C2.43771 15.6588 3.56212 15.6726 3.56212 15.6726C4.71675 15.751 5.32463 16.8345 5.32463 16.8345C6.35083 18.5582 8.01714 18.0598 8.67131 17.7707C8.77585 17.0438 9.07345 16.5454 9.40129 16.2646C6.84847 15.9796 4.163 15.0117 4.163 10.6902C4.163 9.45803 4.61152 8.45305 5.3457 7.6635C5.22848 7.37714 4.83261 6.22964 5.4594 4.67741C5.4594 4.67741 6.42383 4.37453 8.62217 5.83385C9.53885 5.5826 10.5222 5.4587 11.5 5.45456C12.477 5.4587 13.4611 5.58397 14.3792 5.83522C16.5734 4.37453 17.5392 4.67877 17.5392 4.67877C18.1681 6.23239 17.7722 7.37851 17.6543 7.6635C18.3913 8.45305 18.8363 9.45806 18.8363 10.6902C18.8363 15.0228 16.1466 15.9768 13.5847 16.2563C13.9988 16.606 14.3652 17.2916 14.3652 18.3434C14.3652 19.8509 14.3497 21.0665 14.3497 21.4383C14.3497 21.7384 14.5589 22.0894 15.1415 21.9793C19.7081 20.4856 23 16.259 23 11.2781C23 5.0498 17.8508 0 11.5 0Z" fill="#432E30"/>
</svg>
